<?xml version="1.0" standalone="no"?><!DOCTYPE svg PUBLIC "-//W3C//DTD SVG 1.1//EN" "http://www.w3.org/Graphics/SVG/1.1/DTD/svg11.dtd"><svg t="1594882200766" class="icon" viewBox="0 0 1024 1024" version="1.1" xmlns="http://www.w3.org/2000/svg" p-id="1401" xmlns:xlink="http://www.w3.org/1999/xlink" width="200" height="200"><defs><style type="text/css"></style></defs><path d="M512 901.12H261.5296C207.6672 901.12 163.84 857.2928 163.84 803.4304V220.5696C163.84 166.7072 207.6672 122.88 261.5296 122.88h389.3248L860.16 332.3904V512c0 11.264-9.216 20.48-20.48 20.48s-20.48-9.216-20.48-20.48v-162.6112L633.856 163.84H261.5296A56.7296 56.7296 0 0 0 204.8 220.5696v582.8608A56.7296 56.7296 0 0 0 261.5296 860.16H512c11.264 0 20.48 9.216 20.48 20.48s-9.216 20.48-20.48 20.48z" p-id="1402"></path><path d="M839.68 737.28H512c-11.264 0-20.48-9.216-20.48-20.48s9.216-20.48 20.48-20.48h327.68c11.264 0 20.48 9.216 20.48 20.48s-9.216 20.48-20.48 20.48z" p-id="1403"></path><path d="M675.84 901.12c-11.264 0-20.48-9.216-20.48-20.48V552.96c0-11.264 9.216-20.48 20.48-20.48s20.48 9.216 20.48 20.48v327.68c0 11.264-9.216 20.48-20.48 20.48zM839.68 358.4H624.64V143.36c0-11.264 9.216-20.48 20.48-20.48s20.48 9.216 20.48 20.48v174.08H839.68c11.264 0 20.48 9.216 20.48 20.48s-9.216 20.48-20.48 20.48zM522.24 352.4608h-245.76c-11.264 0-20.48-9.216-20.48-20.48s9.216-20.48 20.48-20.48h245.76c11.264 0 20.48 9.216 20.48 20.48s-9.216 20.48-20.48 20.48zM747.52 475.3408h-471.04c-11.264 0-20.48-9.216-20.48-20.48s9.216-20.48 20.48-20.48h471.04c11.264 0 20.48 9.216 20.48 20.48s-9.216 20.48-20.48 20.48z" p-id="1404"></path></svg>